<?xml version="1.0" encoding="UTF-8" standalone="no"?>
<!DOCTYPE svg PUBLIC "-//W3C//DTD SVG 1.1//EN"
 "http://www.w3.org/Graphics/SVG/1.1/DTD/svg11.dtd">
<!-- Generated by graphviz version 5.0.0 (20220707.1540)
 -->
<!-- Title: dependencies Pages: 1 -->
<svg width="1810pt" height="174pt"
 viewBox="0.00 0.00 1810.00 173.80" xmlns="http://www.w3.org/2000/svg" xmlns:xlink="http://www.w3.org/1999/xlink">
<g id="graph0" class="graph" transform="scale(1 1) rotate(0) translate(4 169.8)">
<title>dependencies</title>
<polygon fill="white" stroke="transparent" points="-4,4 -4,-169.8 1806,-169.8 1806,4 -4,4"/>
<text text-anchor="middle" x="901" y="-8.2" font-family="sans-serif" font-size="14.00">dependencies</text>
<g id="clust1" class="cluster">
<title>cluster_AppMaterialModule</title>
<polygon fill="none" stroke="black" stroke-dasharray="1,5" points="8,-32.8 8,-157.8 1794,-157.8 1794,-32.8 8,-32.8"/>
</g>
<g id="clust4" class="cluster">
<title>cluster_AppMaterialModule_exports</title>
<polygon fill="none" stroke="black" points="16,-97.8 16,-149.8 1786,-149.8 1786,-97.8 16,-97.8"/>
</g>
<!-- MatCardModule  -->
<g id="node1" class="node">
<title>MatCardModule </title>
<polygon fill="#fb8072" stroke="black" points="1778.32,-141.8 1665.68,-141.8 1665.68,-105.8 1778.32,-105.8 1778.32,-141.8"/>
<text text-anchor="middle" x="1722" y="-119.6" font-family="Times,serif" font-size="14.00">MatCardModule </text>
</g>
<!-- MatTableModule  -->
<g id="node2" class="node">
<title>MatTableModule </title>
<polygon fill="#fb8072" stroke="black" points="1647.97,-141.8 1530.03,-141.8 1530.03,-105.8 1647.97,-105.8 1647.97,-141.8"/>
<text text-anchor="middle" x="1589" y="-119.6" font-family="Times,serif" font-size="14.00">MatTableModule </text>
</g>
<!-- MatToolbarModule  -->
<g id="node3" class="node">
<title>MatToolbarModule </title>
<polygon fill="#fb8072" stroke="black" points="1511.92,-141.8 1382.08,-141.8 1382.08,-105.8 1511.92,-105.8 1511.92,-141.8"/>
<text text-anchor="middle" x="1447" y="-119.6" font-family="Times,serif" font-size="14.00">MatToolbarModule </text>
</g>
<!-- MatProgressSpinnerModule  -->
<g id="node4" class="node">
<title>MatProgressSpinnerModule </title>
<polygon fill="#fb8072" stroke="black" points="1363.88,-141.8 1186.12,-141.8 1186.12,-105.8 1363.88,-105.8 1363.88,-141.8"/>
<text text-anchor="middle" x="1275" y="-119.6" font-family="Times,serif" font-size="14.00">MatProgressSpinnerModule </text>
</g>
<!-- MatDialogModule  -->
<g id="node5" class="node">
<title>MatDialogModule </title>
<polygon fill="#fb8072" stroke="black" points="1167.71,-141.8 1044.29,-141.8 1044.29,-105.8 1167.71,-105.8 1167.71,-141.8"/>
<text text-anchor="middle" x="1106" y="-119.6" font-family="Times,serif" font-size="14.00">MatDialogModule </text>
</g>
<!-- MatButtonModule  -->
<g id="node6" class="node">
<title>MatButtonModule </title>
<polygon fill="#fb8072" stroke="black" points="1025.72,-141.8 902.28,-141.8 902.28,-105.8 1025.72,-105.8 1025.72,-141.8"/>
<text text-anchor="middle" x="964" y="-119.6" font-family="Times,serif" font-size="14.00">MatButtonModule </text>
</g>
<!-- MatIconModule  -->
<g id="node7" class="node">
<title>MatIconModule </title>
<polygon fill="#fb8072" stroke="black" points="884.48,-141.8 773.52,-141.8 773.52,-105.8 884.48,-105.8 884.48,-141.8"/>
<text text-anchor="middle" x="829" y="-119.6" font-family="Times,serif" font-size="14.00">MatIconModule </text>
</g>
<!-- MatFormFieldModule  -->
<g id="node8" class="node">
<title>MatFormFieldModule </title>
<polygon fill="#fb8072" stroke="black" points="755.22,-141.8 610.78,-141.8 610.78,-105.8 755.22,-105.8 755.22,-141.8"/>
<text text-anchor="middle" x="683" y="-119.6" font-family="Times,serif" font-size="14.00">MatFormFieldModule </text>
</g>
<!-- MatInputModule  -->
<g id="node9" class="node">
<title>MatInputModule </title>
<polygon fill="#fb8072" stroke="black" points="592.66,-141.8 477.34,-141.8 477.34,-105.8 592.66,-105.8 592.66,-141.8"/>
<text text-anchor="middle" x="535" y="-119.6" font-family="Times,serif" font-size="14.00">MatInputModule </text>
</g>
<!-- MatSelectModule  -->
<g id="node10" class="node">
<title>MatSelectModule </title>
<polygon fill="#fb8072" stroke="black" points="459.81,-141.8 340.19,-141.8 340.19,-105.8 459.81,-105.8 459.81,-141.8"/>
<text text-anchor="middle" x="400" y="-119.6" font-family="Times,serif" font-size="14.00">MatSelectModule </text>
</g>
<!-- MatSnackBarModule  -->
<g id="node11" class="node">
<title>MatSnackBarModule </title>
<polygon fill="#fb8072" stroke="black" points="322.03,-141.8 181.97,-141.8 181.97,-105.8 322.03,-105.8 322.03,-141.8"/>
<text text-anchor="middle" x="252" y="-119.6" font-family="Times,serif" font-size="14.00">MatSnackBarModule </text>
</g>
<!-- MatPaginatorModule  -->
<g id="node12" class="node">
<title>MatPaginatorModule </title>
<polygon fill="#fb8072" stroke="black" points="163.76,-141.8 24.24,-141.8 24.24,-105.8 163.76,-105.8 163.76,-141.8"/>
<text text-anchor="middle" x="94" y="-119.6" font-family="Times,serif" font-size="14.00">MatPaginatorModule </text>
</g>
<!-- AppMaterialModule -->
<g id="node13" class="node">
<title>AppMaterialModule</title>
<polygon fill="#8dd3c7" stroke="black" points="1029.58,-76.8 1026.58,-80.8 1005.58,-80.8 1002.58,-76.8 898.42,-76.8 898.42,-40.8 1029.58,-40.8 1029.58,-76.8"/>
<text text-anchor="middle" x="964" y="-54.6" font-family="Times,serif" font-size="14.00">AppMaterialModule</text>
</g>
<!-- AppMaterialModule&#45;&gt;MatCardModule  -->
<g id="edge1" class="edge">
<title>AppMaterialModule&#45;&gt;MatCardModule </title>
<path fill="none" stroke="black" stroke-dasharray="5,2" d="M1029.6,-51.8C1210.51,-51.8 1703.2,-51.8 1703.2,-51.8 1703.2,-51.8 1703.2,-95.63 1703.2,-95.63"/>
<polygon fill="black" stroke="black" points="1699.7,-95.63 1703.2,-105.63 1706.7,-95.63 1699.7,-95.63"/>
</g>
<!-- AppMaterialModule&#45;&gt;MatCardModule  -->
<g id="edge10" class="edge">
<title>AppMaterialModule&#45;&gt;MatCardModule </title>
<path fill="none" stroke="black" stroke-dasharray="5,2" d="M1029.56,-46.8C1216.84,-46.8 1740.8,-46.8 1740.8,-46.8 1740.8,-46.8 1740.8,-95.55 1740.8,-95.55"/>
<polygon fill="black" stroke="black" points="1737.3,-95.55 1740.8,-105.55 1744.3,-95.55 1737.3,-95.55"/>
</g>
<!-- AppMaterialModule&#45;&gt;MatTableModule  -->
<g id="edge2" class="edge">
<title>AppMaterialModule&#45;&gt;MatTableModule </title>
<path fill="none" stroke="black" stroke-dasharray="5,2" d="M1029.7,-56.8C1190.17,-56.8 1589,-56.8 1589,-56.8 1589,-56.8 1589,-95.49 1589,-95.49"/>
<polygon fill="black" stroke="black" points="1585.5,-95.49 1589,-105.49 1592.5,-95.49 1585.5,-95.49"/>
</g>
<!-- AppMaterialModule&#45;&gt;MatToolbarModule  -->
<g id="edge3" class="edge">
<title>AppMaterialModule&#45;&gt;MatToolbarModule </title>
<path fill="none" stroke="black" stroke-dasharray="5,2" d="M1029.64,-61.8C1161.7,-61.8 1447,-61.8 1447,-61.8 1447,-61.8 1447,-95.53 1447,-95.53"/>
<polygon fill="black" stroke="black" points="1443.5,-95.53 1447,-105.53 1450.5,-95.53 1443.5,-95.53"/>
</g>
<!-- AppMaterialModule&#45;&gt;MatProgressSpinnerModule  -->
<g id="edge4" class="edge">
<title>AppMaterialModule&#45;&gt;MatProgressSpinnerModule </title>
<path fill="none" stroke="black" stroke-dasharray="5,2" d="M1029.58,-66.8C1120.82,-66.8 1275,-66.8 1275,-66.8 1275,-66.8 1275,-95.76 1275,-95.76"/>
<polygon fill="black" stroke="black" points="1271.5,-95.76 1275,-105.76 1278.5,-95.76 1271.5,-95.76"/>
</g>
<!-- AppMaterialModule&#45;&gt;MatDialogModule  -->
<g id="edge5" class="edge">
<title>AppMaterialModule&#45;&gt;MatDialogModule </title>
<path fill="none" stroke="black" stroke-dasharray="5,2" d="M1029.6,-71.8C1066.8,-71.8 1106,-71.8 1106,-71.8 1106,-71.8 1106,-95.61 1106,-95.61"/>
<polygon fill="black" stroke="black" points="1102.5,-95.61 1106,-105.61 1109.5,-95.61 1102.5,-95.61"/>
</g>
<!-- AppMaterialModule&#45;&gt;MatButtonModule  -->
<g id="edge6" class="edge">
<title>AppMaterialModule&#45;&gt;MatButtonModule </title>
<path fill="none" stroke="black" stroke-dasharray="5,2" d="M964,-76.91C964,-76.91 964,-95.79 964,-95.79"/>
<polygon fill="black" stroke="black" points="960.5,-95.79 964,-105.79 967.5,-95.79 960.5,-95.79"/>
</g>
<!-- AppMaterialModule&#45;&gt;MatIconModule  -->
<g id="edge7" class="edge">
<title>AppMaterialModule&#45;&gt;MatIconModule </title>
<path fill="none" stroke="black" stroke-dasharray="5,2" d="M898.08,-71.8C863.81,-71.8 829,-71.8 829,-71.8 829,-71.8 829,-95.61 829,-95.61"/>
<polygon fill="black" stroke="black" points="825.5,-95.61 829,-105.61 832.5,-95.61 825.5,-95.61"/>
</g>
<!-- AppMaterialModule&#45;&gt;MatFormFieldModule  -->
<g id="edge8" class="edge">
<title>AppMaterialModule&#45;&gt;MatFormFieldModule </title>
<path fill="none" stroke="black" stroke-dasharray="5,2" d="M898.12,-66.8C815.06,-66.8 683,-66.8 683,-66.8 683,-66.8 683,-95.76 683,-95.76"/>
<polygon fill="black" stroke="black" points="679.5,-95.76 683,-105.76 686.5,-95.76 679.5,-95.76"/>
</g>
<!-- AppMaterialModule&#45;&gt;MatInputModule  -->
<g id="edge9" class="edge">
<title>AppMaterialModule&#45;&gt;MatInputModule </title>
<path fill="none" stroke="black" stroke-dasharray="5,2" d="M898.38,-61.8C778.2,-61.8 535,-61.8 535,-61.8 535,-61.8 535,-95.53 535,-95.53"/>
<polygon fill="black" stroke="black" points="531.5,-95.53 535,-105.53 538.5,-95.53 531.5,-95.53"/>
</g>
<!-- AppMaterialModule&#45;&gt;MatSelectModule  -->
<g id="edge11" class="edge">
<title>AppMaterialModule&#45;&gt;MatSelectModule </title>
<path fill="none" stroke="black" stroke-dasharray="5,2" d="M898.2,-56.8C749.42,-56.8 400,-56.8 400,-56.8 400,-56.8 400,-95.49 400,-95.49"/>
<polygon fill="black" stroke="black" points="396.5,-95.49 400,-105.49 403.5,-95.49 396.5,-95.49"/>
</g>
<!-- AppMaterialModule&#45;&gt;MatSnackBarModule  -->
<g id="edge12" class="edge">
<title>AppMaterialModule&#45;&gt;MatSnackBarModule </title>
<path fill="none" stroke="black" stroke-dasharray="5,2" d="M898.29,-51.8C722.03,-51.8 252,-51.8 252,-51.8 252,-51.8 252,-95.63 252,-95.63"/>
<polygon fill="black" stroke="black" points="248.5,-95.63 252,-105.63 255.5,-95.63 248.5,-95.63"/>
</g>
<!-- AppMaterialModule&#45;&gt;MatPaginatorModule  -->
<g id="edge13" class="edge">
<title>AppMaterialModule&#45;&gt;MatPaginatorModule </title>
<path fill="none" stroke="black" stroke-dasharray="5,2" d="M898.25,-46.8C695.57,-46.8 94,-46.8 94,-46.8 94,-46.8 94,-95.55 94,-95.55"/>
<polygon fill="black" stroke="black" points="90.5,-95.55 94,-105.55 97.5,-95.55 90.5,-95.55"/>
</g>
</g>
</svg>
