<?xml version="1.0" encoding="UTF-8" standalone="no"?>
<!DOCTYPE svg PUBLIC "-//W3C//DTD SVG 1.1//EN"
 "http://www.w3.org/Graphics/SVG/1.1/DTD/svg11.dtd">
<!-- Generated by graphviz version 5.0.0 (20220707.1540)
 -->
<!-- Title: dependencies Pages: 1 -->
<svg width="1124pt" height="247pt"
 viewBox="0.00 0.00 1124.00 246.80" xmlns="http://www.w3.org/2000/svg" xmlns:xlink="http://www.w3.org/1999/xlink">
<g id="graph0" class="graph" transform="scale(1 1) rotate(0) translate(4 242.8)">
<title>dependencies</title>
<polygon fill="white" stroke="transparent" points="-4,4 -4,-242.8 1120,-242.8 1120,4 -4,4"/>
<text text-anchor="middle" x="558" y="-8.2" font-family="sans-serif" font-size="14.00">dependencies</text>
<g id="clust1" class="cluster">
<title>cluster_AppModule</title>
<polygon fill="none" stroke="black" stroke-dasharray="1,5" points="8,-32.8 8,-230.8 1108,-230.8 1108,-32.8 8,-32.8"/>
</g>
<g id="clust4" class="cluster">
<title>cluster_AppModule_imports</title>
<polygon fill="none" stroke="black" points="146,-40.8 146,-92.8 1100,-92.8 1100,-40.8 146,-40.8"/>
</g>
<g id="clust6" class="cluster">
<title>cluster_AppModule_bootstrap</title>
<polygon fill="none" stroke="black" points="505,-170.8 505,-222.8 629,-222.8 629,-170.8 505,-170.8"/>
</g>
<g id="clust2" class="cluster">
<title>cluster_AppModule_declarations</title>
<polygon fill="none" stroke="black" points="16,-40.8 16,-92.8 138,-92.8 138,-40.8 16,-40.8"/>
</g>
<!-- AppComponent -->
<g id="node1" class="node">
<title>AppComponent</title>
<polygon fill="#ffffb3" stroke="black" points="129.94,-84.8 24.06,-84.8 24.06,-48.8 129.94,-48.8 129.94,-84.8"/>
<text text-anchor="middle" x="77" y="-62.6" font-family="Times,serif" font-size="14.00">AppComponent</text>
</g>
<!-- AppModule -->
<g id="node2" class="node">
<title>AppModule</title>
<polygon fill="#8dd3c7" stroke="black" points="608.66,-149.8 605.66,-153.8 584.66,-153.8 581.66,-149.8 525.34,-149.8 525.34,-113.8 608.66,-113.8 608.66,-149.8"/>
<text text-anchor="middle" x="567" y="-127.6" font-family="Times,serif" font-size="14.00">AppModule</text>
</g>
<!-- AppComponent&#45;&gt;AppModule -->
<g id="edge1" class="edge">
<title>AppComponent&#45;&gt;AppModule</title>
<path fill="none" stroke="black" d="M77,-85.09C77,-107.01 77,-140.8 77,-140.8 77,-140.8 515.22,-140.8 515.22,-140.8"/>
<polygon fill="black" stroke="black" points="515.22,-144.3 525.22,-140.8 515.22,-137.3 515.22,-144.3"/>
</g>
<!-- AppComponent  -->
<g id="node9" class="node">
<title>AppComponent </title>
<polygon fill="#80b1d3" stroke="black" points="621.44,-214.8 512.56,-214.8 512.56,-178.8 621.44,-178.8 621.44,-214.8"/>
<text text-anchor="middle" x="567" y="-192.6" font-family="Times,serif" font-size="14.00">AppComponent </text>
</g>
<!-- AppModule&#45;&gt;AppComponent  -->
<g id="edge8" class="edge">
<title>AppModule&#45;&gt;AppComponent </title>
<path fill="none" stroke="black" stroke-dasharray="1,5" d="M567,-149.91C567,-149.91 567,-168.79 567,-168.79"/>
<polygon fill="black" stroke="black" points="563.5,-168.79 567,-178.79 570.5,-168.79 563.5,-168.79"/>
</g>
<!-- BrowserModule -->
<g id="node3" class="node">
<title>BrowserModule</title>
<polygon fill="#8dd3c7" stroke="black" points="1092.49,-84.8 1089.49,-88.8 1068.49,-88.8 1065.49,-84.8 985.51,-84.8 985.51,-48.8 1092.49,-48.8 1092.49,-84.8"/>
<text text-anchor="middle" x="1039" y="-62.6" font-family="Times,serif" font-size="14.00">BrowserModule</text>
</g>
<!-- BrowserModule&#45;&gt;AppModule -->
<g id="edge2" class="edge">
<title>BrowserModule&#45;&gt;AppModule</title>
<path fill="none" stroke="black" d="M1039,-85.09C1039,-107.01 1039,-140.8 1039,-140.8 1039,-140.8 618.89,-140.8 618.89,-140.8"/>
<polygon fill="black" stroke="black" points="618.89,-137.3 608.89,-140.8 618.89,-144.3 618.89,-137.3"/>
</g>
<!-- AppRoutingModule -->
<g id="node4" class="node">
<title>AppRoutingModule</title>
<polygon fill="#8dd3c7" stroke="black" points="967.28,-84.8 964.28,-88.8 943.28,-88.8 940.28,-84.8 838.72,-84.8 838.72,-48.8 967.28,-48.8 967.28,-84.8"/>
<text text-anchor="middle" x="903" y="-62.6" font-family="Times,serif" font-size="14.00">AppRoutingModule</text>
</g>
<!-- AppRoutingModule&#45;&gt;AppModule -->
<g id="edge3" class="edge">
<title>AppRoutingModule&#45;&gt;AppModule</title>
<path fill="none" stroke="black" d="M903,-84.91C903,-104.14 903,-131.8 903,-131.8 903,-131.8 618.88,-131.8 618.88,-131.8"/>
<polygon fill="black" stroke="black" points="618.88,-128.3 608.88,-131.8 618.88,-135.3 618.88,-128.3"/>
</g>
<!-- BrowserAnimationsModule -->
<g id="node5" class="node">
<title>BrowserAnimationsModule</title>
<polygon fill="#8dd3c7" stroke="black" points="820.32,-84.8 817.32,-88.8 796.32,-88.8 793.32,-84.8 647.68,-84.8 647.68,-48.8 820.32,-48.8 820.32,-84.8"/>
<text text-anchor="middle" x="734" y="-62.6" font-family="Times,serif" font-size="14.00">BrowserAnimationsModule</text>
</g>
<!-- BrowserAnimationsModule&#45;&gt;AppModule -->
<g id="edge4" class="edge">
<title>BrowserAnimationsModule&#45;&gt;AppModule</title>
<path fill="none" stroke="black" d="M734,-84.83C734,-101.2 734,-122.8 734,-122.8 734,-122.8 618.71,-122.8 618.71,-122.8"/>
<polygon fill="black" stroke="black" points="618.71,-119.3 608.71,-122.8 618.71,-126.3 618.71,-119.3"/>
</g>
<!-- MatToolbarModule -->
<g id="node6" class="node">
<title>MatToolbarModule</title>
<polygon fill="#8dd3c7" stroke="black" points="630.42,-84.8 627.42,-88.8 606.42,-88.8 603.42,-84.8 503.58,-84.8 503.58,-48.8 630.42,-48.8 630.42,-84.8"/>
<text text-anchor="middle" x="567" y="-62.6" font-family="Times,serif" font-size="14.00">MatToolbarModule</text>
</g>
<!-- MatToolbarModule&#45;&gt;AppModule -->
<g id="edge5" class="edge">
<title>MatToolbarModule&#45;&gt;AppModule</title>
<path fill="none" stroke="black" d="M567,-84.91C567,-84.91 567,-103.79 567,-103.79"/>
<polygon fill="black" stroke="black" points="563.5,-103.79 567,-113.79 570.5,-103.79 563.5,-103.79"/>
</g>
<!-- HttpClientModule -->
<g id="node7" class="node">
<title>HttpClientModule</title>
<polygon fill="#8dd3c7" stroke="black" points="485.16,-84.8 482.16,-88.8 461.16,-88.8 458.16,-84.8 366.84,-84.8 366.84,-48.8 485.16,-48.8 485.16,-84.8"/>
<text text-anchor="middle" x="426" y="-62.6" font-family="Times,serif" font-size="14.00">HttpClientModule</text>
</g>
<!-- HttpClientModule&#45;&gt;AppModule -->
<g id="edge6" class="edge">
<title>HttpClientModule&#45;&gt;AppModule</title>
<path fill="none" stroke="black" d="M426,-84.83C426,-101.2 426,-122.8 426,-122.8 426,-122.8 515.08,-122.8 515.08,-122.8"/>
<polygon fill="black" stroke="black" points="515.08,-126.3 525.08,-122.8 515.08,-119.3 515.08,-126.3"/>
</g>
<!-- AgmCoreModule.forRoot(args) -->
<g id="node8" class="node">
<title>AgmCoreModule.forRoot(args)</title>
<polygon fill="#8dd3c7" stroke="black" points="348.47,-84.8 345.47,-88.8 324.47,-88.8 321.47,-84.8 153.53,-84.8 153.53,-48.8 348.47,-48.8 348.47,-84.8"/>
<text text-anchor="middle" x="251" y="-62.6" font-family="Times,serif" font-size="14.00">AgmCoreModule.forRoot(args)</text>
</g>
<!-- AgmCoreModule.forRoot(args)&#45;&gt;AppModule -->
<g id="edge7" class="edge">
<title>AgmCoreModule.forRoot(args)&#45;&gt;AppModule</title>
<path fill="none" stroke="black" d="M251,-84.91C251,-104.14 251,-131.8 251,-131.8 251,-131.8 515.04,-131.8 515.04,-131.8"/>
<polygon fill="black" stroke="black" points="515.04,-135.3 525.04,-131.8 515.04,-128.3 515.04,-135.3"/>
</g>
</g>
</svg>
