<?xml version="1.0" encoding="UTF-8" standalone="no"?>
<!DOCTYPE svg PUBLIC "-//W3C//DTD SVG 1.1//EN"
 "http://www.w3.org/Graphics/SVG/1.1/DTD/svg11.dtd">
<!-- Generated by graphviz version 5.0.0 (20220707.1540)
 -->
<!-- Title: dependencies Pages: 1 -->
<svg width="4263pt" height="261pt"
 viewBox="0.00 0.00 4263.00 260.80" xmlns="http://www.w3.org/2000/svg" xmlns:xlink="http://www.w3.org/1999/xlink">
<g id="graph0" class="graph" transform="scale(1 1) rotate(0) translate(4 256.8)">
<title>dependencies</title>
<polygon fill="white" stroke="transparent" points="-4,4 -4,-256.8 4259,-256.8 4259,4 -4,4"/>
<text text-anchor="middle" x="2127.5" y="-8.2" font-family="sans-serif" font-size="14.00">dependencies</text>
<g id="clust1" class="cluster">
<title>cluster_AppMaterialModule</title>
<polygon fill="none" stroke="black" stroke-dasharray="1,5" points="8,-40.8 8,-168.8 1794,-168.8 1794,-40.8 8,-40.8"/>
</g>
<g id="clust4" class="cluster">
<title>cluster_AppMaterialModule_exports</title>
<polygon fill="none" stroke="black" points="16,-108.8 16,-160.8 1786,-160.8 1786,-108.8 16,-108.8"/>
</g>
<g id="clust7" class="cluster">
<title>cluster_AppModule</title>
<polygon fill="none" stroke="black" stroke-dasharray="1,5" points="3147,-32.8 3147,-244.8 4247,-244.8 4247,-32.8 3147,-32.8"/>
</g>
<g id="clust8" class="cluster">
<title>cluster_AppModule_declarations</title>
<polygon fill="none" stroke="black" points="4117,-40.8 4117,-92.8 4239,-92.8 4239,-40.8 4117,-40.8"/>
</g>
<g id="clust10" class="cluster">
<title>cluster_AppModule_imports</title>
<polygon fill="none" stroke="black" points="3155,-40.8 3155,-92.8 4109,-92.8 4109,-40.8 3155,-40.8"/>
</g>
<g id="clust12" class="cluster">
<title>cluster_AppModule_bootstrap</title>
<polygon fill="none" stroke="black" points="3645,-184.8 3645,-236.8 3769,-236.8 3769,-184.8 3645,-184.8"/>
</g>
<g id="clust14" class="cluster">
<title>cluster_ClientsModule</title>
<polygon fill="none" stroke="black" stroke-dasharray="1,5" points="1826,-32.8 1826,-236.8 2775,-236.8 2775,-32.8 1826,-32.8"/>
</g>
<g id="clust15" class="cluster">
<title>cluster_ClientsModule_declarations</title>
<polygon fill="none" stroke="black" points="1846,-108.8 1846,-160.8 2307,-160.8 2307,-108.8 1846,-108.8"/>
</g>
<g id="clust19" class="cluster">
<title>cluster_ClientsModule_imports</title>
<polygon fill="none" stroke="black" points="2315,-40.8 2315,-160.8 2767,-160.8 2767,-40.8 2315,-40.8"/>
</g>
<g id="clust23" class="cluster">
<title>cluster_ClientsRoutingModule</title>
<polygon fill="none" stroke="black" stroke-dasharray="1,5" points="2783,-100.8 2783,-168.8 3123,-168.8 3123,-100.8 2783,-100.8"/>
</g>
<g id="clust25" class="cluster">
<title>cluster_ClientsRoutingModule_imports</title>
<polygon fill="none" stroke="black" points="2917,-108.8 2917,-160.8 3115,-160.8 3115,-108.8 2917,-108.8"/>
</g>
<g id="clust26" class="cluster">
<title>cluster_ClientsRoutingModule_exports</title>
<polygon fill="none" stroke="black" points="2791,-108.8 2791,-160.8 2909,-160.8 2909,-108.8 2791,-108.8"/>
</g>
<g id="clust29" class="cluster">
<title>cluster_SharedModule</title>
<polygon fill="none" stroke="black" stroke-dasharray="1,5" points="2783,-176.8 2783,-244.8 3139,-244.8 3139,-176.8 2783,-176.8"/>
</g>
<g id="clust30" class="cluster">
<title>cluster_SharedModule_declarations</title>
<polygon fill="none" stroke="black" points="2967,-184.8 2967,-236.8 3131,-236.8 3131,-184.8 2967,-184.8"/>
</g>
<g id="clust33" class="cluster">
<title>cluster_SharedModule_exports</title>
<polygon fill="none" stroke="black" points="2791,-184.8 2791,-236.8 2959,-236.8 2959,-184.8 2791,-184.8"/>
</g>
<!-- MatCardModule  -->
<g id="node1" class="node">
<title>MatCardModule </title>
<polygon fill="#fb8072" stroke="black" points="420.32,-152.8 307.68,-152.8 307.68,-116.8 420.32,-116.8 420.32,-152.8"/>
<text text-anchor="middle" x="364" y="-130.6" font-family="Times,serif" font-size="14.00">MatCardModule </text>
</g>
<!-- MatTableModule  -->
<g id="node2" class="node">
<title>MatTableModule </title>
<polygon fill="#fb8072" stroke="black" points="289.97,-152.8 172.03,-152.8 172.03,-116.8 289.97,-116.8 289.97,-152.8"/>
<text text-anchor="middle" x="231" y="-130.6" font-family="Times,serif" font-size="14.00">MatTableModule </text>
</g>
<!-- MatToolbarModule  -->
<g id="node3" class="node">
<title>MatToolbarModule </title>
<polygon fill="#fb8072" stroke="black" points="153.92,-152.8 24.08,-152.8 24.08,-116.8 153.92,-116.8 153.92,-152.8"/>
<text text-anchor="middle" x="89" y="-130.6" font-family="Times,serif" font-size="14.00">MatToolbarModule </text>
</g>
<!-- MatProgressSpinnerModule  -->
<g id="node4" class="node">
<title>MatProgressSpinnerModule </title>
<polygon fill="#fb8072" stroke="black" points="1777.88,-152.8 1600.12,-152.8 1600.12,-116.8 1777.88,-116.8 1777.88,-152.8"/>
<text text-anchor="middle" x="1689" y="-130.6" font-family="Times,serif" font-size="14.00">MatProgressSpinnerModule </text>
</g>
<!-- MatDialogModule  -->
<g id="node5" class="node">
<title>MatDialogModule </title>
<polygon fill="#fb8072" stroke="black" points="1581.71,-152.8 1458.29,-152.8 1458.29,-116.8 1581.71,-116.8 1581.71,-152.8"/>
<text text-anchor="middle" x="1520" y="-130.6" font-family="Times,serif" font-size="14.00">MatDialogModule </text>
</g>
<!-- MatButtonModule  -->
<g id="node6" class="node">
<title>MatButtonModule </title>
<polygon fill="#fb8072" stroke="black" points="1439.72,-152.8 1316.28,-152.8 1316.28,-116.8 1439.72,-116.8 1439.72,-152.8"/>
<text text-anchor="middle" x="1378" y="-130.6" font-family="Times,serif" font-size="14.00">MatButtonModule </text>
</g>
<!-- MatIconModule  -->
<g id="node7" class="node">
<title>MatIconModule </title>
<polygon fill="#fb8072" stroke="black" points="1298.48,-152.8 1187.52,-152.8 1187.52,-116.8 1298.48,-116.8 1298.48,-152.8"/>
<text text-anchor="middle" x="1243" y="-130.6" font-family="Times,serif" font-size="14.00">MatIconModule </text>
</g>
<!-- MatFormFieldModule  -->
<g id="node8" class="node">
<title>MatFormFieldModule </title>
<polygon fill="#fb8072" stroke="black" points="1169.22,-152.8 1024.78,-152.8 1024.78,-116.8 1169.22,-116.8 1169.22,-152.8"/>
<text text-anchor="middle" x="1097" y="-130.6" font-family="Times,serif" font-size="14.00">MatFormFieldModule </text>
</g>
<!-- MatInputModule  -->
<g id="node9" class="node">
<title>MatInputModule </title>
<polygon fill="#fb8072" stroke="black" points="1006.66,-152.8 891.34,-152.8 891.34,-116.8 1006.66,-116.8 1006.66,-152.8"/>
<text text-anchor="middle" x="949" y="-130.6" font-family="Times,serif" font-size="14.00">MatInputModule </text>
</g>
<!-- MatSelectModule  -->
<g id="node10" class="node">
<title>MatSelectModule </title>
<polygon fill="#fb8072" stroke="black" points="873.81,-152.8 754.19,-152.8 754.19,-116.8 873.81,-116.8 873.81,-152.8"/>
<text text-anchor="middle" x="814" y="-130.6" font-family="Times,serif" font-size="14.00">MatSelectModule </text>
</g>
<!-- MatSnackBarModule  -->
<g id="node11" class="node">
<title>MatSnackBarModule </title>
<polygon fill="#fb8072" stroke="black" points="736.03,-152.8 595.97,-152.8 595.97,-116.8 736.03,-116.8 736.03,-152.8"/>
<text text-anchor="middle" x="666" y="-130.6" font-family="Times,serif" font-size="14.00">MatSnackBarModule </text>
</g>
<!-- MatPaginatorModule  -->
<g id="node12" class="node">
<title>MatPaginatorModule </title>
<polygon fill="#fb8072" stroke="black" points="577.76,-152.8 438.24,-152.8 438.24,-116.8 577.76,-116.8 577.76,-152.8"/>
<text text-anchor="middle" x="508" y="-130.6" font-family="Times,serif" font-size="14.00">MatPaginatorModule </text>
</g>
<!-- AppMaterialModule -->
<g id="node13" class="node">
<title>AppMaterialModule</title>
<polygon fill="#8dd3c7" stroke="black" points="1014.58,-84.8 1011.58,-88.8 990.58,-88.8 987.58,-84.8 883.42,-84.8 883.42,-48.8 1014.58,-48.8 1014.58,-84.8"/>
<text text-anchor="middle" x="949" y="-62.6" font-family="Times,serif" font-size="14.00">AppMaterialModule</text>
</g>
<!-- AppMaterialModule&#45;&gt;MatCardModule  -->
<g id="edge1" class="edge">
<title>AppMaterialModule&#45;&gt;MatCardModule </title>
<path fill="none" stroke="black" stroke-dasharray="5,2" d="M883.22,-69.8C734.02,-69.8 382.8,-69.8 382.8,-69.8 382.8,-69.8 382.8,-106.69 382.8,-106.69"/>
<polygon fill="black" stroke="black" points="379.3,-106.69 382.8,-116.69 386.3,-106.69 379.3,-106.69"/>
</g>
<!-- AppMaterialModule&#45;&gt;MatCardModule  -->
<g id="edge10" class="edge">
<title>AppMaterialModule&#45;&gt;MatCardModule </title>
<path fill="none" stroke="black" stroke-dasharray="5,2" d="M883.23,-64.8C726.74,-64.8 345.2,-64.8 345.2,-64.8 345.2,-64.8 345.2,-106.77 345.2,-106.77"/>
<polygon fill="black" stroke="black" points="341.7,-106.77 345.2,-116.77 348.7,-106.77 341.7,-106.77"/>
</g>
<!-- AppMaterialModule&#45;&gt;MatTableModule  -->
<g id="edge2" class="edge">
<title>AppMaterialModule&#45;&gt;MatTableModule </title>
<path fill="none" stroke="black" stroke-dasharray="5,2" d="M883.38,-59.8C706.13,-59.8 231,-59.8 231,-59.8 231,-59.8 231,-106.64 231,-106.64"/>
<polygon fill="black" stroke="black" points="227.5,-106.64 231,-116.64 234.5,-106.64 227.5,-106.64"/>
</g>
<!-- AppMaterialModule&#45;&gt;MatToolbarModule  -->
<g id="edge3" class="edge">
<title>AppMaterialModule&#45;&gt;MatToolbarModule </title>
<path fill="none" stroke="black" stroke-dasharray="5,2" d="M883.3,-54.8C682.26,-54.8 89,-54.8 89,-54.8 89,-54.8 89,-106.65 89,-106.65"/>
<polygon fill="black" stroke="black" points="85.5,-106.65 89,-116.65 92.5,-106.65 85.5,-106.65"/>
</g>
<!-- AppMaterialModule&#45;&gt;MatProgressSpinnerModule  -->
<g id="edge4" class="edge">
<title>AppMaterialModule&#45;&gt;MatProgressSpinnerModule </title>
<path fill="none" stroke="black" stroke-dasharray="5,2" d="M1014.67,-59.8C1195.78,-59.8 1689,-59.8 1689,-59.8 1689,-59.8 1689,-106.64 1689,-106.64"/>
<polygon fill="black" stroke="black" points="1685.5,-106.64 1689,-116.64 1692.5,-106.64 1685.5,-106.64"/>
</g>
<!-- AppMaterialModule&#45;&gt;MatDialogModule  -->
<g id="edge5" class="edge">
<title>AppMaterialModule&#45;&gt;MatDialogModule </title>
<path fill="none" stroke="black" stroke-dasharray="5,2" d="M1014.78,-64.8C1164.92,-64.8 1520,-64.8 1520,-64.8 1520,-64.8 1520,-106.77 1520,-106.77"/>
<polygon fill="black" stroke="black" points="1516.5,-106.77 1520,-116.77 1523.5,-106.77 1516.5,-106.77"/>
</g>
<!-- AppMaterialModule&#45;&gt;MatButtonModule  -->
<g id="edge6" class="edge">
<title>AppMaterialModule&#45;&gt;MatButtonModule </title>
<path fill="none" stroke="black" stroke-dasharray="5,2" d="M1014.62,-69.8C1134.8,-69.8 1378,-69.8 1378,-69.8 1378,-69.8 1378,-106.69 1378,-106.69"/>
<polygon fill="black" stroke="black" points="1374.5,-106.69 1378,-116.69 1381.5,-106.69 1374.5,-106.69"/>
</g>
<!-- AppMaterialModule&#45;&gt;MatIconModule  -->
<g id="edge7" class="edge">
<title>AppMaterialModule&#45;&gt;MatIconModule </title>
<path fill="none" stroke="black" stroke-dasharray="5,2" d="M1014.61,-74.8C1101.26,-74.8 1243,-74.8 1243,-74.8 1243,-74.8 1243,-106.8 1243,-106.8"/>
<polygon fill="black" stroke="black" points="1239.5,-106.8 1243,-116.8 1246.5,-106.8 1239.5,-106.8"/>
</g>
<!-- AppMaterialModule&#45;&gt;MatFormFieldModule  -->
<g id="edge8" class="edge">
<title>AppMaterialModule&#45;&gt;MatFormFieldModule </title>
<path fill="none" stroke="black" stroke-dasharray="5,2" d="M1011.89,-85.02C1011.89,-105.17 1011.89,-134.8 1011.89,-134.8 1011.89,-134.8 1014.45,-134.8 1014.45,-134.8"/>
<polygon fill="black" stroke="black" points="1014.45,-138.3 1024.45,-134.8 1014.45,-131.3 1014.45,-138.3"/>
</g>
<!-- AppMaterialModule&#45;&gt;MatInputModule  -->
<g id="edge9" class="edge">
<title>AppMaterialModule&#45;&gt;MatInputModule </title>
<path fill="none" stroke="black" stroke-dasharray="5,2" d="M949,-85.02C949,-85.02 949,-106.53 949,-106.53"/>
<polygon fill="black" stroke="black" points="945.5,-106.53 949,-116.53 952.5,-106.53 945.5,-106.53"/>
</g>
<!-- AppMaterialModule&#45;&gt;MatSelectModule  -->
<g id="edge11" class="edge">
<title>AppMaterialModule&#45;&gt;MatSelectModule </title>
<path fill="none" stroke="black" stroke-dasharray="5,2" d="M887.44,-85.02C887.44,-105.17 887.44,-134.8 887.44,-134.8 887.44,-134.8 883.97,-134.8 883.97,-134.8"/>
<polygon fill="black" stroke="black" points="883.97,-131.3 873.97,-134.8 883.97,-138.3 883.97,-131.3"/>
</g>
<!-- AppMaterialModule&#45;&gt;MatSnackBarModule  -->
<g id="edge12" class="edge">
<title>AppMaterialModule&#45;&gt;MatSnackBarModule </title>
<path fill="none" stroke="black" stroke-dasharray="5,2" d="M883.36,-79.8C799.76,-79.8 666,-79.8 666,-79.8 666,-79.8 666,-106.79 666,-106.79"/>
<polygon fill="black" stroke="black" points="662.5,-106.79 666,-116.79 669.5,-106.79 662.5,-106.79"/>
</g>
<!-- AppMaterialModule&#45;&gt;MatPaginatorModule  -->
<g id="edge13" class="edge">
<title>AppMaterialModule&#45;&gt;MatPaginatorModule </title>
<path fill="none" stroke="black" stroke-dasharray="5,2" d="M883.45,-74.8C760.61,-74.8 508,-74.8 508,-74.8 508,-74.8 508,-106.8 508,-106.8"/>
<polygon fill="black" stroke="black" points="504.5,-106.8 508,-116.8 511.5,-106.8 504.5,-106.8"/>
</g>
<!-- ClientsModule -->
<g id="node26" class="node">
<title>ClientsModule</title>
<polygon fill="#8dd3c7" stroke="black" points="2202.72,-228.8 2199.72,-232.8 2178.72,-232.8 2175.72,-228.8 2103.28,-228.8 2103.28,-192.8 2202.72,-192.8 2202.72,-228.8"/>
<text text-anchor="middle" x="2153" y="-206.6" font-family="Times,serif" font-size="14.00">ClientsModule</text>
</g>
<!-- AppMaterialModule&#45;&gt;ClientsModule -->
<g id="edge27" class="edge">
<title>AppMaterialModule&#45;&gt;ClientsModule</title>
<path fill="none" stroke="black" d="M1009.23,-84.89C1009.23,-124.79 1009.23,-216.8 1009.23,-216.8 1009.23,-216.8 2093.12,-216.8 2093.12,-216.8"/>
<polygon fill="black" stroke="black" points="2093.12,-220.3 2103.12,-216.8 2093.12,-213.3 2093.12,-220.3"/>
</g>
<!-- SharedModule -->
<g id="node29" class="node">
<title>SharedModule</title>
<polygon fill="#8dd3c7" stroke="black" points="2590.43,-152.8 2587.43,-156.8 2566.43,-156.8 2563.43,-152.8 2491.57,-152.8 2491.57,-116.8 2590.43,-116.8 2590.43,-152.8"/>
<text text-anchor="middle" x="2541" y="-130.6" font-family="Times,serif" font-size="14.00">SharedModule</text>
</g>
<!-- AppMaterialModule&#45;&gt;SharedModule -->
<g id="edge34" class="edge">
<title>AppMaterialModule&#45;&gt;SharedModule</title>
<path fill="none" stroke="black" d="M1014.7,-54.8C1286.79,-54.8 2311.12,-54.8 2311.12,-54.8 2311.12,-54.8 2311.12,-134.8 2311.12,-134.8 2311.12,-134.8 2481.68,-134.8 2481.68,-134.8"/>
<polygon fill="black" stroke="black" points="2481.68,-138.3 2491.68,-134.8 2481.68,-131.3 2481.68,-138.3"/>
</g>
<!-- AppComponent -->
<g id="node14" class="node">
<title>AppComponent</title>
<polygon fill="#ffffb3" stroke="black" points="4230.94,-84.8 4125.06,-84.8 4125.06,-48.8 4230.94,-48.8 4230.94,-84.8"/>
<text text-anchor="middle" x="4178" y="-62.6" font-family="Times,serif" font-size="14.00">AppComponent</text>
</g>
<!-- AppModule -->
<g id="node15" class="node">
<title>AppModule</title>
<polygon fill="#8dd3c7" stroke="black" points="3748.66,-152.8 3745.66,-156.8 3724.66,-156.8 3721.66,-152.8 3665.34,-152.8 3665.34,-116.8 3748.66,-116.8 3748.66,-152.8"/>
<text text-anchor="middle" x="3707" y="-130.6" font-family="Times,serif" font-size="14.00">AppModule</text>
</g>
<!-- AppComponent&#45;&gt;AppModule -->
<g id="edge14" class="edge">
<title>AppComponent&#45;&gt;AppModule</title>
<path fill="none" stroke="black" d="M4178,-85.05C4178,-107.82 4178,-143.8 4178,-143.8 4178,-143.8 3758.8,-143.8 3758.8,-143.8"/>
<polygon fill="black" stroke="black" points="3758.8,-140.3 3748.8,-143.8 3758.8,-147.3 3758.8,-140.3"/>
</g>
<!-- AppComponent  -->
<g id="node22" class="node">
<title>AppComponent </title>
<polygon fill="#80b1d3" stroke="black" points="3761.44,-228.8 3652.56,-228.8 3652.56,-192.8 3761.44,-192.8 3761.44,-228.8"/>
<text text-anchor="middle" x="3707" y="-206.6" font-family="Times,serif" font-size="14.00">AppComponent </text>
</g>
<!-- AppModule&#45;&gt;AppComponent  -->
<g id="edge21" class="edge">
<title>AppModule&#45;&gt;AppComponent </title>
<path fill="none" stroke="black" stroke-dasharray="1,5" d="M3707,-152.81C3707,-152.81 3707,-182.65 3707,-182.65"/>
<polygon fill="black" stroke="black" points="3703.5,-182.65 3707,-192.65 3710.5,-182.65 3703.5,-182.65"/>
</g>
<!-- BrowserModule -->
<g id="node16" class="node">
<title>BrowserModule</title>
<polygon fill="#8dd3c7" stroke="black" points="3416.49,-84.8 3413.49,-88.8 3392.49,-88.8 3389.49,-84.8 3309.51,-84.8 3309.51,-48.8 3416.49,-48.8 3416.49,-84.8"/>
<text text-anchor="middle" x="3363" y="-62.6" font-family="Times,serif" font-size="14.00">BrowserModule</text>
</g>
<!-- BrowserModule&#45;&gt;AppModule -->
<g id="edge15" class="edge">
<title>BrowserModule&#45;&gt;AppModule</title>
<path fill="none" stroke="black" d="M3363,-85.02C3363,-105.17 3363,-134.8 3363,-134.8 3363,-134.8 3655.16,-134.8 3655.16,-134.8"/>
<polygon fill="black" stroke="black" points="3655.16,-138.3 3665.16,-134.8 3655.16,-131.3 3655.16,-138.3"/>
</g>
<!-- AppRoutingModule -->
<g id="node17" class="node">
<title>AppRoutingModule</title>
<polygon fill="#8dd3c7" stroke="black" points="3291.28,-84.8 3288.28,-88.8 3267.28,-88.8 3264.28,-84.8 3162.72,-84.8 3162.72,-48.8 3291.28,-48.8 3291.28,-84.8"/>
<text text-anchor="middle" x="3227" y="-62.6" font-family="Times,serif" font-size="14.00">AppRoutingModule</text>
</g>
<!-- AppRoutingModule&#45;&gt;AppModule -->
<g id="edge16" class="edge">
<title>AppRoutingModule&#45;&gt;AppModule</title>
<path fill="none" stroke="black" d="M3227,-85.05C3227,-107.82 3227,-143.8 3227,-143.8 3227,-143.8 3655.24,-143.8 3655.24,-143.8"/>
<polygon fill="black" stroke="black" points="3655.24,-147.3 3665.24,-143.8 3655.24,-140.3 3655.24,-147.3"/>
</g>
<!-- BrowserAnimationsModule -->
<g id="node18" class="node">
<title>BrowserAnimationsModule</title>
<polygon fill="#8dd3c7" stroke="black" points="4101.32,-84.8 4098.32,-88.8 4077.32,-88.8 4074.32,-84.8 3928.68,-84.8 3928.68,-48.8 4101.32,-48.8 4101.32,-84.8"/>
<text text-anchor="middle" x="4015" y="-62.6" font-family="Times,serif" font-size="14.00">BrowserAnimationsModule</text>
</g>
<!-- BrowserAnimationsModule&#45;&gt;AppModule -->
<g id="edge17" class="edge">
<title>BrowserAnimationsModule&#45;&gt;AppModule</title>
<path fill="none" stroke="black" d="M4015,-85.02C4015,-105.17 4015,-134.8 4015,-134.8 4015,-134.8 3758.86,-134.8 3758.86,-134.8"/>
<polygon fill="black" stroke="black" points="3758.86,-131.3 3748.86,-134.8 3758.86,-138.3 3758.86,-131.3"/>
</g>
<!-- MatToolbarModule -->
<g id="node19" class="node">
<title>MatToolbarModule</title>
<polygon fill="#8dd3c7" stroke="black" points="3911.42,-84.8 3908.42,-88.8 3887.42,-88.8 3884.42,-84.8 3784.58,-84.8 3784.58,-48.8 3911.42,-48.8 3911.42,-84.8"/>
<text text-anchor="middle" x="3848" y="-62.6" font-family="Times,serif" font-size="14.00">MatToolbarModule</text>
</g>
<!-- MatToolbarModule&#45;&gt;AppModule -->
<g id="edge18" class="edge">
<title>MatToolbarModule&#45;&gt;AppModule</title>
<path fill="none" stroke="black" d="M3848,-84.82C3848,-102.17 3848,-125.8 3848,-125.8 3848,-125.8 3758.92,-125.8 3758.92,-125.8"/>
<polygon fill="black" stroke="black" points="3758.92,-122.3 3748.92,-125.8 3758.92,-129.3 3758.92,-122.3"/>
</g>
<!-- HttpClientModule -->
<g id="node20" class="node">
<title>HttpClientModule</title>
<polygon fill="#8dd3c7" stroke="black" points="3766.16,-84.8 3763.16,-88.8 3742.16,-88.8 3739.16,-84.8 3647.84,-84.8 3647.84,-48.8 3766.16,-48.8 3766.16,-84.8"/>
<text text-anchor="middle" x="3707" y="-62.6" font-family="Times,serif" font-size="14.00">HttpClientModule</text>
</g>
<!-- HttpClientModule&#45;&gt;AppModule -->
<g id="edge19" class="edge">
<title>HttpClientModule&#45;&gt;AppModule</title>
<path fill="none" stroke="black" d="M3707,-85.02C3707,-85.02 3707,-106.53 3707,-106.53"/>
<polygon fill="black" stroke="black" points="3703.5,-106.53 3707,-116.53 3710.5,-106.53 3703.5,-106.53"/>
</g>
<!-- AgmCoreModule.forRoot(args) -->
<g id="node21" class="node">
<title>AgmCoreModule.forRoot(args)</title>
<polygon fill="#8dd3c7" stroke="black" points="3629.47,-84.8 3626.47,-88.8 3605.47,-88.8 3602.47,-84.8 3434.53,-84.8 3434.53,-48.8 3629.47,-48.8 3629.47,-84.8"/>
<text text-anchor="middle" x="3532" y="-62.6" font-family="Times,serif" font-size="14.00">AgmCoreModule.forRoot(args)</text>
</g>
<!-- AgmCoreModule.forRoot(args)&#45;&gt;AppModule -->
<g id="edge20" class="edge">
<title>AgmCoreModule.forRoot(args)&#45;&gt;AppModule</title>
<path fill="none" stroke="black" d="M3532,-84.82C3532,-102.17 3532,-125.8 3532,-125.8 3532,-125.8 3655.08,-125.8 3655.08,-125.8"/>
<polygon fill="black" stroke="black" points="3655.08,-129.3 3665.08,-125.8 3655.08,-122.3 3655.08,-129.3"/>
</g>
<!-- ClientsComponent -->
<g id="node23" class="node">
<title>ClientsComponent</title>
<polygon fill="#ffffb3" stroke="black" points="2138.5,-152.8 2017.5,-152.8 2017.5,-116.8 2138.5,-116.8 2138.5,-152.8"/>
<text text-anchor="middle" x="2078" y="-130.6" font-family="Times,serif" font-size="14.00">ClientsComponent</text>
</g>
<!-- ClientsComponent&#45;&gt;ClientsModule -->
<g id="edge22" class="edge">
<title>ClientsComponent&#45;&gt;ClientsModule</title>
<path fill="none" stroke="black" d="M2120.94,-152.81C2120.94,-152.81 2120.94,-182.65 2120.94,-182.65"/>
<polygon fill="black" stroke="black" points="2117.44,-182.65 2120.94,-192.65 2124.44,-182.65 2117.44,-182.65"/>
</g>
<!-- ClientFormComponent -->
<g id="node24" class="node">
<title>ClientFormComponent</title>
<polygon fill="#ffffb3" stroke="black" points="1999.89,-152.8 1854.11,-152.8 1854.11,-116.8 1999.89,-116.8 1999.89,-152.8"/>
<text text-anchor="middle" x="1927" y="-130.6" font-family="Times,serif" font-size="14.00">ClientFormComponent</text>
</g>
<!-- ClientFormComponent&#45;&gt;ClientsModule -->
<g id="edge23" class="edge">
<title>ClientFormComponent&#45;&gt;ClientsModule</title>
<path fill="none" stroke="black" d="M1927,-152.83C1927,-173.57 1927,-204.8 1927,-204.8 1927,-204.8 2093.12,-204.8 2093.12,-204.8"/>
<polygon fill="black" stroke="black" points="2093.12,-208.3 2103.12,-204.8 2093.12,-201.3 2093.12,-208.3"/>
</g>
<!-- ClientsListComponent -->
<g id="node25" class="node">
<title>ClientsListComponent</title>
<polygon fill="#ffffb3" stroke="black" points="2299.28,-152.8 2156.72,-152.8 2156.72,-116.8 2299.28,-116.8 2299.28,-152.8"/>
<text text-anchor="middle" x="2228" y="-130.6" font-family="Times,serif" font-size="14.00">ClientsListComponent</text>
</g>
<!-- ClientsListComponent&#45;&gt;ClientsModule -->
<g id="edge24" class="edge">
<title>ClientsListComponent&#45;&gt;ClientsModule</title>
<path fill="none" stroke="black" d="M2179.61,-152.81C2179.61,-152.81 2179.61,-182.65 2179.61,-182.65"/>
<polygon fill="black" stroke="black" points="2176.11,-182.65 2179.61,-192.65 2183.11,-182.65 2176.11,-182.65"/>
</g>
<!-- CommonModule -->
<g id="node27" class="node">
<title>CommonModule</title>
<polygon fill="#8dd3c7" stroke="black" points="2596.67,-84.8 2593.67,-88.8 2572.67,-88.8 2569.67,-84.8 2485.33,-84.8 2485.33,-48.8 2596.67,-48.8 2596.67,-84.8"/>
<text text-anchor="middle" x="2541" y="-62.6" font-family="Times,serif" font-size="14.00">CommonModule</text>
</g>
<!-- CommonModule&#45;&gt;ClientsModule -->
<g id="edge25" class="edge">
<title>CommonModule&#45;&gt;ClientsModule</title>
<path fill="none" stroke="black" d="M2485.18,-66.8C2479.72,-66.8 2476.16,-66.8 2476.16,-66.8 2476.16,-66.8 2476.16,-200.8 2476.16,-200.8 2476.16,-200.8 2212.79,-200.8 2212.79,-200.8"/>
<polygon fill="black" stroke="black" points="2212.79,-197.3 2202.79,-200.8 2212.79,-204.3 2212.79,-197.3"/>
</g>
<!-- CommonModule&#45;&gt;SharedModule -->
<g id="edge33" class="edge">
<title>CommonModule&#45;&gt;SharedModule</title>
<path fill="none" stroke="black" d="M2541,-85.02C2541,-85.02 2541,-106.53 2541,-106.53"/>
<polygon fill="black" stroke="black" points="2537.5,-106.53 2541,-116.53 2544.5,-106.53 2537.5,-106.53"/>
</g>
<!-- ClientsRoutingModule -->
<g id="node28" class="node">
<title>ClientsRoutingModule</title>
<polygon fill="#8dd3c7" stroke="black" points="2759.34,-84.8 2756.34,-88.8 2735.34,-88.8 2732.34,-84.8 2614.66,-84.8 2614.66,-48.8 2759.34,-48.8 2759.34,-84.8"/>
<text text-anchor="middle" x="2687" y="-62.6" font-family="Times,serif" font-size="14.00">ClientsRoutingModule</text>
</g>
<!-- ClientsRoutingModule&#45;&gt;ClientsModule -->
<g id="edge26" class="edge">
<title>ClientsRoutingModule&#45;&gt;ClientsModule</title>
<path fill="none" stroke="black" d="M2687,-84.95C2687,-124.47 2687,-214.8 2687,-214.8 2687,-214.8 2212.76,-214.8 2212.76,-214.8"/>
<polygon fill="black" stroke="black" points="2212.76,-211.3 2202.76,-214.8 2212.76,-218.3 2212.76,-211.3"/>
</g>
<!-- RouterModule  -->
<g id="node32" class="node">
<title>RouterModule </title>
<polygon fill="#fb8072" stroke="black" points="2900.66,-152.8 2799.34,-152.8 2799.34,-116.8 2900.66,-116.8 2900.66,-152.8"/>
<text text-anchor="middle" x="2850" y="-130.6" font-family="Times,serif" font-size="14.00">RouterModule </text>
</g>
<!-- ClientsRoutingModule&#45;&gt;RouterModule  -->
<g id="edge31" class="edge">
<title>ClientsRoutingModule&#45;&gt;RouterModule </title>
<path fill="none" stroke="black" stroke-dasharray="5,2" d="M2759.44,-72.8C2802.98,-72.8 2850,-72.8 2850,-72.8 2850,-72.8 2850,-106.53 2850,-106.53"/>
<polygon fill="black" stroke="black" points="2846.5,-106.53 2850,-116.53 2853.5,-106.53 2846.5,-106.53"/>
</g>
<!-- SharedModule&#45;&gt;ClientsModule -->
<g id="edge28" class="edge">
<title>SharedModule&#45;&gt;ClientsModule</title>
<path fill="none" stroke="black" d="M2541,-152.84C2541,-174.46 2541,-207.8 2541,-207.8 2541,-207.8 2212.93,-207.8 2212.93,-207.8"/>
<polygon fill="black" stroke="black" points="2212.93,-204.3 2202.93,-207.8 2212.93,-211.3 2212.93,-204.3"/>
</g>
<!-- ErrorDialogComponent  -->
<g id="node34" class="node">
<title>ErrorDialogComponent </title>
<polygon fill="#fb8072" stroke="black" points="2951.47,-228.8 2798.53,-228.8 2798.53,-192.8 2951.47,-192.8 2951.47,-228.8"/>
<text text-anchor="middle" x="2875" y="-206.6" font-family="Times,serif" font-size="14.00">ErrorDialogComponent </text>
</g>
<!-- SharedModule&#45;&gt;ErrorDialogComponent  -->
<g id="edge35" class="edge">
<title>SharedModule&#45;&gt;ErrorDialogComponent </title>
<path fill="none" stroke="black" stroke-dasharray="5,2" d="M2565.61,-152.83C2565.61,-178.31 2565.61,-221.8 2565.61,-221.8 2565.61,-221.8 2788.52,-221.8 2788.52,-221.8"/>
<polygon fill="black" stroke="black" points="2788.52,-225.3 2798.52,-221.8 2788.52,-218.3 2788.52,-225.3"/>
</g>
<!-- ReactiveFormsModule -->
<g id="node30" class="node">
<title>ReactiveFormsModule</title>
<polygon fill="#8dd3c7" stroke="black" points="2467.31,-84.8 2464.31,-88.8 2443.31,-88.8 2440.31,-84.8 2322.69,-84.8 2322.69,-48.8 2467.31,-48.8 2467.31,-84.8"/>
<text text-anchor="middle" x="2395" y="-62.6" font-family="Times,serif" font-size="14.00">ReactiveFormsModule</text>
</g>
<!-- ReactiveFormsModule&#45;&gt;ClientsModule -->
<g id="edge29" class="edge">
<title>ReactiveFormsModule&#45;&gt;ClientsModule</title>
<path fill="none" stroke="black" d="M2322.76,-79.8C2249.73,-79.8 2147.56,-79.8 2147.56,-79.8 2147.56,-79.8 2147.56,-182.59 2147.56,-182.59"/>
<polygon fill="black" stroke="black" points="2144.06,-182.58 2147.56,-192.59 2151.06,-182.59 2144.06,-182.58"/>
</g>
<!-- RouterModule.forChild(args) -->
<g id="node31" class="node">
<title>RouterModule.forChild(args)</title>
<polygon fill="#8dd3c7" stroke="black" points="3106.75,-152.8 3103.75,-156.8 3082.75,-156.8 3079.75,-152.8 2925.25,-152.8 2925.25,-116.8 3106.75,-116.8 3106.75,-152.8"/>
<text text-anchor="middle" x="3016" y="-130.6" font-family="Times,serif" font-size="14.00">RouterModule.forChild(args)</text>
</g>
<!-- RouterModule.forChild(args)&#45;&gt;ClientsRoutingModule -->
<g id="edge30" class="edge">
<title>RouterModule.forChild(args)&#45;&gt;ClientsRoutingModule</title>
<path fill="none" stroke="black" d="M3016,-116.51C3016,-94.59 3016,-60.8 3016,-60.8 3016,-60.8 2769.2,-60.8 2769.2,-60.8"/>
<polygon fill="black" stroke="black" points="2769.2,-57.3 2759.2,-60.8 2769.2,-64.3 2769.2,-57.3"/>
</g>
<!-- ErrorDialogComponent -->
<g id="node33" class="node">
<title>ErrorDialogComponent</title>
<polygon fill="#ffffb3" stroke="black" points="3123.47,-228.8 2974.53,-228.8 2974.53,-192.8 3123.47,-192.8 3123.47,-228.8"/>
<text text-anchor="middle" x="3049" y="-206.6" font-family="Times,serif" font-size="14.00">ErrorDialogComponent</text>
</g>
<!-- ErrorDialogComponent&#45;&gt;SharedModule -->
<g id="edge32" class="edge">
<title>ErrorDialogComponent&#45;&gt;SharedModule</title>
<path fill="none" stroke="black" d="M3040.57,-192.69C3040.57,-182.9 3040.57,-172.8 3040.57,-172.8 3040.57,-172.8 2516.39,-172.8 2516.39,-172.8 2516.39,-172.8 2516.39,-162.91 2516.39,-162.91"/>
<polygon fill="black" stroke="black" points="2519.89,-162.91 2516.39,-152.91 2512.89,-162.91 2519.89,-162.91"/>
</g>
</g>
</svg>
