<?xml version="1.0" encoding="UTF-8" standalone="no"?>
<!DOCTYPE svg PUBLIC "-//W3C//DTD SVG 1.1//EN"
 "http://www.w3.org/Graphics/SVG/1.1/DTD/svg11.dtd">
<!-- Generated by graphviz version 5.0.0 (20220707.1540)
 -->
<!-- Title: dependencies Pages: 1 -->
<svg width="489pt" height="247pt"
 viewBox="0.00 0.00 489.00 246.80" xmlns="http://www.w3.org/2000/svg" xmlns:xlink="http://www.w3.org/1999/xlink">
<g id="graph0" class="graph" transform="scale(1 1) rotate(0) translate(4 242.8)">
<title>dependencies</title>
<polygon fill="white" stroke="transparent" points="-4,4 -4,-242.8 485,-242.8 485,4 -4,4"/>
<text text-anchor="middle" x="240.5" y="-8.2" font-family="sans-serif" font-size="14.00">dependencies</text>
<g id="clust1" class="cluster">
<title>cluster_SharedModule</title>
<polygon fill="none" stroke="black" stroke-dasharray="1,5" points="8,-32.8 8,-230.8 473,-230.8 473,-32.8 8,-32.8"/>
</g>
<g id="clust2" class="cluster">
<title>cluster_SharedModule_declarations</title>
<polygon fill="none" stroke="black" points="301,-40.8 301,-92.8 465,-92.8 465,-40.8 301,-40.8"/>
</g>
<g id="clust4" class="cluster">
<title>cluster_SharedModule_imports</title>
<polygon fill="none" stroke="black" points="16,-40.8 16,-92.8 293,-92.8 293,-40.8 16,-40.8"/>
</g>
<g id="clust5" class="cluster">
<title>cluster_SharedModule_exports</title>
<polygon fill="none" stroke="black" points="145,-170.8 145,-222.8 313,-222.8 313,-170.8 145,-170.8"/>
</g>
<!-- ErrorDialogComponent -->
<g id="node1" class="node">
<title>ErrorDialogComponent</title>
<polygon fill="#ffffb3" stroke="black" points="457.47,-84.8 308.53,-84.8 308.53,-48.8 457.47,-48.8 457.47,-84.8"/>
<text text-anchor="middle" x="383" y="-62.6" font-family="Times,serif" font-size="14.00">ErrorDialogComponent</text>
</g>
<!-- SharedModule -->
<g id="node2" class="node">
<title>SharedModule</title>
<polygon fill="#8dd3c7" stroke="black" points="278.43,-149.8 275.43,-153.8 254.43,-153.8 251.43,-149.8 179.57,-149.8 179.57,-113.8 278.43,-113.8 278.43,-149.8"/>
<text text-anchor="middle" x="229" y="-127.6" font-family="Times,serif" font-size="14.00">SharedModule</text>
</g>
<!-- ErrorDialogComponent&#45;&gt;SharedModule -->
<g id="edge1" class="edge">
<title>ErrorDialogComponent&#45;&gt;SharedModule</title>
<path fill="none" stroke="black" d="M383,-84.91C383,-104.14 383,-131.8 383,-131.8 383,-131.8 288.57,-131.8 288.57,-131.8"/>
<polygon fill="black" stroke="black" points="288.57,-128.3 278.57,-131.8 288.57,-135.3 288.57,-128.3"/>
</g>
<!-- ErrorDialogComponent  -->
<g id="node5" class="node">
<title>ErrorDialogComponent </title>
<polygon fill="#fb8072" stroke="black" points="305.47,-214.8 152.53,-214.8 152.53,-178.8 305.47,-178.8 305.47,-214.8"/>
<text text-anchor="middle" x="229" y="-192.6" font-family="Times,serif" font-size="14.00">ErrorDialogComponent </text>
</g>
<!-- SharedModule&#45;&gt;ErrorDialogComponent  -->
<g id="edge4" class="edge">
<title>SharedModule&#45;&gt;ErrorDialogComponent </title>
<path fill="none" stroke="black" stroke-dasharray="5,2" d="M229,-149.91C229,-149.91 229,-168.79 229,-168.79"/>
<polygon fill="black" stroke="black" points="225.5,-168.79 229,-178.79 232.5,-168.79 225.5,-168.79"/>
</g>
<!-- CommonModule -->
<g id="node3" class="node">
<title>CommonModule</title>
<polygon fill="#8dd3c7" stroke="black" points="284.67,-84.8 281.67,-88.8 260.67,-88.8 257.67,-84.8 173.33,-84.8 173.33,-48.8 284.67,-48.8 284.67,-84.8"/>
<text text-anchor="middle" x="229" y="-62.6" font-family="Times,serif" font-size="14.00">CommonModule</text>
</g>
<!-- CommonModule&#45;&gt;SharedModule -->
<g id="edge2" class="edge">
<title>CommonModule&#45;&gt;SharedModule</title>
<path fill="none" stroke="black" d="M229,-84.91C229,-84.91 229,-103.79 229,-103.79"/>
<polygon fill="black" stroke="black" points="225.5,-103.79 229,-113.79 232.5,-103.79 225.5,-103.79"/>
</g>
<!-- AppMaterialModule -->
<g id="node4" class="node">
<title>AppMaterialModule</title>
<polygon fill="#8dd3c7" stroke="black" points="155.58,-84.8 152.58,-88.8 131.58,-88.8 128.58,-84.8 24.42,-84.8 24.42,-48.8 155.58,-48.8 155.58,-84.8"/>
<text text-anchor="middle" x="90" y="-62.6" font-family="Times,serif" font-size="14.00">AppMaterialModule</text>
</g>
<!-- AppMaterialModule&#45;&gt;SharedModule -->
<g id="edge3" class="edge">
<title>AppMaterialModule&#45;&gt;SharedModule</title>
<path fill="none" stroke="black" d="M88.61,-84.91C88.61,-104.14 88.61,-131.8 88.61,-131.8 88.61,-131.8 169.5,-131.8 169.5,-131.8"/>
<polygon fill="black" stroke="black" points="169.5,-135.3 179.5,-131.8 169.5,-128.3 169.5,-135.3"/>
</g>
</g>
</svg>
