<?xml version="1.0" encoding="UTF-8" standalone="no"?>
<!DOCTYPE svg PUBLIC "-//W3C//DTD SVG 1.1//EN"
 "http://www.w3.org/Graphics/SVG/1.1/DTD/svg11.dtd">
<!-- Generated by graphviz version 5.0.0 (20220707.1540)
 -->
<!-- Title: dependencies Pages: 1 -->
<svg width="1227pt" height="174pt"
 viewBox="0.00 0.00 1227.00 173.80" xmlns="http://www.w3.org/2000/svg" xmlns:xlink="http://www.w3.org/1999/xlink">
<g id="graph0" class="graph" transform="scale(1 1) rotate(0) translate(4 169.8)">
<title>dependencies</title>
<polygon fill="white" stroke="transparent" points="-4,4 -4,-169.8 1223,-169.8 1223,4 -4,4"/>
<text text-anchor="middle" x="609.5" y="-8.2" font-family="sans-serif" font-size="14.00">dependencies</text>
<g id="clust1" class="cluster">
<title>cluster_ClientsModule</title>
<polygon fill="none" stroke="black" stroke-dasharray="1,5" points="8,-32.8 8,-157.8 1211,-157.8 1211,-32.8 8,-32.8"/>
</g>
<g id="clust6" class="cluster">
<title>cluster_ClientsModule_imports</title>
<polygon fill="none" stroke="black" points="485,-40.8 485,-92.8 1203,-92.8 1203,-40.8 485,-40.8"/>
</g>
<g id="clust2" class="cluster">
<title>cluster_ClientsModule_declarations</title>
<polygon fill="none" stroke="black" points="16,-40.8 16,-92.8 477,-92.8 477,-40.8 16,-40.8"/>
</g>
<!-- ClientsComponent -->
<g id="node1" class="node">
<title>ClientsComponent</title>
<polygon fill="#ffffb3" stroke="black" points="468.5,-84.8 347.5,-84.8 347.5,-48.8 468.5,-48.8 468.5,-84.8"/>
<text text-anchor="middle" x="408" y="-62.6" font-family="Times,serif" font-size="14.00">ClientsComponent</text>
</g>
<!-- ClientsModule -->
<g id="node4" class="node">
<title>ClientsModule</title>
<polygon fill="#8dd3c7" stroke="black" points="683.72,-149.8 680.72,-153.8 659.72,-153.8 656.72,-149.8 584.28,-149.8 584.28,-113.8 683.72,-113.8 683.72,-149.8"/>
<text text-anchor="middle" x="634" y="-127.6" font-family="Times,serif" font-size="14.00">ClientsModule</text>
</g>
<!-- ClientsComponent&#45;&gt;ClientsModule -->
<g id="edge1" class="edge">
<title>ClientsComponent&#45;&gt;ClientsModule</title>
<path fill="none" stroke="black" d="M408,-84.83C408,-101.2 408,-122.8 408,-122.8 408,-122.8 574.12,-122.8 574.12,-122.8"/>
<polygon fill="black" stroke="black" points="574.12,-126.3 584.12,-122.8 574.12,-119.3 574.12,-126.3"/>
</g>
<!-- ClientFormComponent -->
<g id="node2" class="node">
<title>ClientFormComponent</title>
<polygon fill="#ffffb3" stroke="black" points="329.89,-84.8 184.11,-84.8 184.11,-48.8 329.89,-48.8 329.89,-84.8"/>
<text text-anchor="middle" x="257" y="-62.6" font-family="Times,serif" font-size="14.00">ClientFormComponent</text>
</g>
<!-- ClientFormComponent&#45;&gt;ClientsModule -->
<g id="edge2" class="edge">
<title>ClientFormComponent&#45;&gt;ClientsModule</title>
<path fill="none" stroke="black" d="M257,-84.91C257,-104.14 257,-131.8 257,-131.8 257,-131.8 574.33,-131.8 574.33,-131.8"/>
<polygon fill="black" stroke="black" points="574.33,-135.3 584.33,-131.8 574.33,-128.3 574.33,-135.3"/>
</g>
<!-- ClientsListComponent -->
<g id="node3" class="node">
<title>ClientsListComponent</title>
<polygon fill="#ffffb3" stroke="black" points="166.28,-84.8 23.72,-84.8 23.72,-48.8 166.28,-48.8 166.28,-84.8"/>
<text text-anchor="middle" x="95" y="-62.6" font-family="Times,serif" font-size="14.00">ClientsListComponent</text>
</g>
<!-- ClientsListComponent&#45;&gt;ClientsModule -->
<g id="edge3" class="edge">
<title>ClientsListComponent&#45;&gt;ClientsModule</title>
<path fill="none" stroke="black" d="M95,-85.09C95,-107.01 95,-140.8 95,-140.8 95,-140.8 574.26,-140.8 574.26,-140.8"/>
<polygon fill="black" stroke="black" points="574.26,-144.3 584.26,-140.8 574.26,-137.3 574.26,-144.3"/>
</g>
<!-- CommonModule -->
<g id="node5" class="node">
<title>CommonModule</title>
<polygon fill="#8dd3c7" stroke="black" points="1194.67,-84.8 1191.67,-88.8 1170.67,-88.8 1167.67,-84.8 1083.33,-84.8 1083.33,-48.8 1194.67,-48.8 1194.67,-84.8"/>
<text text-anchor="middle" x="1139" y="-62.6" font-family="Times,serif" font-size="14.00">CommonModule</text>
</g>
<!-- CommonModule&#45;&gt;ClientsModule -->
<g id="edge4" class="edge">
<title>CommonModule&#45;&gt;ClientsModule</title>
<path fill="none" stroke="black" d="M1139,-85.09C1139,-107.01 1139,-140.8 1139,-140.8 1139,-140.8 693.8,-140.8 693.8,-140.8"/>
<polygon fill="black" stroke="black" points="693.8,-137.3 683.8,-140.8 693.8,-144.3 693.8,-137.3"/>
</g>
<!-- ClientsRoutingModule -->
<g id="node6" class="node">
<title>ClientsRoutingModule</title>
<polygon fill="#8dd3c7" stroke="black" points="1065.34,-84.8 1062.34,-88.8 1041.34,-88.8 1038.34,-84.8 920.66,-84.8 920.66,-48.8 1065.34,-48.8 1065.34,-84.8"/>
<text text-anchor="middle" x="993" y="-62.6" font-family="Times,serif" font-size="14.00">ClientsRoutingModule</text>
</g>
<!-- ClientsRoutingModule&#45;&gt;ClientsModule -->
<g id="edge5" class="edge">
<title>ClientsRoutingModule&#45;&gt;ClientsModule</title>
<path fill="none" stroke="black" d="M993,-84.91C993,-104.14 993,-131.8 993,-131.8 993,-131.8 693.92,-131.8 693.92,-131.8"/>
<polygon fill="black" stroke="black" points="693.92,-128.3 683.92,-131.8 693.92,-135.3 693.92,-128.3"/>
</g>
<!-- AppMaterialModule -->
<g id="node7" class="node">
<title>AppMaterialModule</title>
<polygon fill="#8dd3c7" stroke="black" points="902.58,-84.8 899.58,-88.8 878.58,-88.8 875.58,-84.8 771.42,-84.8 771.42,-48.8 902.58,-48.8 902.58,-84.8"/>
<text text-anchor="middle" x="837" y="-62.6" font-family="Times,serif" font-size="14.00">AppMaterialModule</text>
</g>
<!-- AppMaterialModule&#45;&gt;ClientsModule -->
<g id="edge6" class="edge">
<title>AppMaterialModule&#45;&gt;ClientsModule</title>
<path fill="none" stroke="black" d="M837,-84.83C837,-101.2 837,-122.8 837,-122.8 837,-122.8 693.66,-122.8 693.66,-122.8"/>
<polygon fill="black" stroke="black" points="693.66,-119.3 683.66,-122.8 693.66,-126.3 693.66,-119.3"/>
</g>
<!-- SharedModule -->
<g id="node8" class="node">
<title>SharedModule</title>
<polygon fill="#8dd3c7" stroke="black" points="753.43,-84.8 750.43,-88.8 729.43,-88.8 726.43,-84.8 654.57,-84.8 654.57,-48.8 753.43,-48.8 753.43,-84.8"/>
<text text-anchor="middle" x="704" y="-62.6" font-family="Times,serif" font-size="14.00">SharedModule</text>
</g>
<!-- SharedModule&#45;&gt;ClientsModule -->
<g id="edge7" class="edge">
<title>SharedModule&#45;&gt;ClientsModule</title>
<path fill="none" stroke="black" d="M669.2,-84.91C669.2,-84.91 669.2,-103.79 669.2,-103.79"/>
<polygon fill="black" stroke="black" points="665.7,-103.79 669.2,-113.79 672.7,-103.79 665.7,-103.79"/>
</g>
<!-- ReactiveFormsModule -->
<g id="node9" class="node">
<title>ReactiveFormsModule</title>
<polygon fill="#8dd3c7" stroke="black" points="637.31,-84.8 634.31,-88.8 613.31,-88.8 610.31,-84.8 492.69,-84.8 492.69,-48.8 637.31,-48.8 637.31,-84.8"/>
<text text-anchor="middle" x="565" y="-62.6" font-family="Times,serif" font-size="14.00">ReactiveFormsModule</text>
</g>
<!-- ReactiveFormsModule&#45;&gt;ClientsModule -->
<g id="edge8" class="edge">
<title>ReactiveFormsModule&#45;&gt;ClientsModule</title>
<path fill="none" stroke="black" d="M610.77,-84.91C610.77,-84.91 610.77,-103.79 610.77,-103.79"/>
<polygon fill="black" stroke="black" points="607.27,-103.79 610.77,-113.79 614.27,-103.79 607.27,-103.79"/>
</g>
</g>
</svg>
